<?xml version="1.0" standalone="no"?>
<!DOCTYPE svg PUBLIC "-//W3C//DTD SVG 20010904//EN"
 "http://www.w3.org/TR/2001/REC-SVG-20010904/DTD/svg10.dtd">
<svg version="1.0" xmlns="http://www.w3.org/2000/svg"
 width="644.000000pt" height="980.000000pt" viewBox="0 0 644.000000 980.000000"
 preserveAspectRatio="xMidYMid meet">

<g transform="translate(0.000000,980.000000) scale(0.100000,-0.100000)"
fill="#000000" stroke="none">
<path d="M2955 9790 c-145 -15 -286 -37 -412 -66 -1245 -278 -2219 -1301
-2472 -2594 -47 -242 -55 -334 -56 -620 0 -299 8 -363 75 -630 220 -872 906
-2155 1975 -3695 289 -417 698 -974 979 -1333 83 -107 157 -201 164 -210 11
-15 13 -15 25 0 6 9 80 103 163 210 83 106 243 317 355 468 1410 1894 2337
3521 2599 4560 68 268 75 330 75 630 -1 285 -9 379 -56 620 -179 926 -748
1745 -1542 2222 -375 225 -782 367 -1218 424 -146 18 -525 27 -654 14z m655
-435 c427 -67 793 -209 1145 -446 802 -540 1299 -1506 1272 -2474 -7 -248 -42
-426 -144 -740 -287 -884 -1016 -2164 -2076 -3650 -249 -348 -575 -785 -587
-785 -11 0 -335 432 -562 750 -737 1033 -1282 1907 -1672 2680 -301 596 -469
1042 -549 1460 -19 99 -22 148 -21 355 0 256 12 371 60 595 212 988 908 1795
1829 2123 203 72 381 114 605 143 144 18 557 12 700 -11z"/>
<path d="M3065 8334 c-140 -19 -193 -29 -280 -51 -606 -151 -1108 -645 -1295
-1274 -53 -178 -74 -332 -74 -544 0 -218 22 -371 80 -562 176 -582 615 -1040
1175 -1226 198 -66 307 -82 549 -82 184 0 231 4 328 23 752 152 1317 745 1453
1527 27 155 32 424 10 575 -62 438 -253 816 -563 1115 -265 257 -574 415 -933
480 -85 15 -385 28 -450 19z m445 -442 c277 -65 475 -176 680 -382 178 -177
281 -342 355 -563 236 -711 -70 -1473 -723 -1801 -182 -91 -387 -138 -602
-138 -160 0 -284 19 -427 67 -757 253 -1158 1088 -898 1872 73 219 178 386
350 559 218 219 455 345 750 399 115 21 400 14 515 -13z"/>
<path d="M1645 1930 c-584 -125 -1029 -314 -1256 -532 -180 -172 -225 -352
-134 -535 161 -325 787 -613 1650 -757 879 -148 1932 -138 2775 25 939 182
1522 517 1547 889 9 134 -44 246 -179 376 -163 157 -399 283 -753 400 -201 66
-647 177 -659 163 -22 -26 -247 -351 -245 -354 2 -2 72 -13 154 -25 800 -114
1286 -319 1285 -541 0 -50 -50 -129 -112 -176 -269 -208 -894 -354 -1808 -425
-224 -17 -1158 -17 -1380 0 -899 70 -1528 215 -1795 414 -368 274 97 572 1130
724 99 14 182 27 183 29 8 7 -245 350 -259 352 -8 1 -72 -11 -144 -27z"/>
</g>
</svg>
