<?xml version="1.0" standalone="no"?>
<!DOCTYPE svg PUBLIC "-//W3C//DTD SVG 20010904//EN"
 "http://www.w3.org/TR/2001/REC-SVG-20010904/DTD/svg10.dtd">
<svg version="1.0" xmlns="http://www.w3.org/2000/svg"
 width="920.000000pt" height="1200.000000pt" viewBox="0 0 920.000000 1200.000000"
 preserveAspectRatio="xMidYMid meet">

<g transform="translate(0.000000,1200.000000) scale(0.100000,-0.100000)"
fill="#000000" stroke="none">
<path d="M4330 11989 c-903 -62 -1753 -417 -2419 -1009 -610 -542 -1044 -1250
-1245 -2030 -86 -335 -117 -576 -121 -950 -5 -366 12 -554 76 -875 81 -406
330 -1125 604 -1740 588 -1322 1605 -2996 2843 -4680 220 -299 523 -695 532
-695 8 0 343 438 547 715 1431 1951 2517 3805 3068 5235 146 382 309 894 359
1135 110 528 114 1124 10 1635 -152 750 -501 1429 -1018 1980 -684 729 -1589
1174 -2581 1270 -152 14 -505 19 -655 9z m470 -2071 c783 -81 1441 -609 1689
-1353 66 -197 91 -341 98 -555 4 -118 1 -223 -6 -290 -108 -947 -854 -1678
-1806 -1770 -118 -11 -345 -4 -467 15 -731 111 -1344 617 -1588 1310 -199 566
-128 1203 192 1719 308 496 850 845 1423 915 50 6 104 13 120 15 55 7 259 3
345 -6z"/>
</g>
</svg>
